<svg width="39" height="39" viewBox="0 0 39 39" fill="none" xmlns="http://www.w3.org/2000/svg">
<g clip-path="url(#clip0_1_4184)">
<path d="M0.677579 39.0003C0.497864 38.9998 0.325665 38.9273 0.198674 38.7986C0.0716832 38.6698 0.000246185 38.4954 0 38.3135L0 33.6439C0.000246185 33.462 0.0716832 33.2876 0.198674 33.1589C0.325665 33.0301 0.497864 32.9576 0.677579 32.9571H4.38V26.6474C4.38 26.4653 4.45148 26.2906 4.57873 26.1618C4.70598 26.033 4.87856 25.9606 5.05851 25.9606C5.23846 25.9606 5.41105 26.033 5.53829 26.1618C5.66554 26.2906 5.73702 26.4653 5.73702 26.6474V32.9524H6.79166C6.97089 32.9536 7.14237 33.0265 7.26876 33.1551C7.39514 33.2838 7.4662 33.4577 7.46644 33.6392V37.623H7.91349V21.6103C7.91398 21.4284 7.98566 21.2541 8.11282 21.1256C8.23999 20.997 8.41229 20.9247 8.592 20.9245H18.1238C18.3036 20.9247 18.4759 20.997 18.603 21.1256C18.7302 21.2541 18.8019 21.4284 18.8024 21.6103V37.623H20.2154V33.6392C20.2156 33.4571 20.2872 33.2825 20.4144 33.1538C20.5416 33.0251 20.714 32.9526 20.8939 32.9524H33.277V19.0379L19.5061 5.73559L5.74542 19.0379V23.9239C5.74542 24.106 5.67394 24.2807 5.54669 24.4095C5.41945 24.5383 5.24686 24.6107 5.06691 24.6107C4.88696 24.6107 4.71438 24.5383 4.58713 24.4095C4.45988 24.2807 4.3884 24.106 4.3884 23.9239V20.3435L3.53069 21.171C3.4107 21.2879 3.25225 21.3558 3.08581 21.3615C2.91937 21.3673 2.75671 21.3105 2.62912 21.2022L0.344389 19.2599C0.25297 19.1847 0.181984 19.0872 0.138129 18.9765C0.0893536 18.8502 0.0787498 18.7121 0.107664 18.5798C0.136579 18.4474 0.203707 18.3267 0.300524 18.233L17.8961 1.27095L19.0478 0.189265C19.1728 0.0696076 19.3383 0.00292969 19.5103 0.00292969C19.6823 0.00292969 19.8478 0.0696076 19.9727 0.189265L21.1188 1.26433L26.2044 6.17677V4.04553C26.2046 3.86362 26.2761 3.68921 26.4031 3.5605C26.5301 3.43178 26.7023 3.35923 26.882 3.35873H34.103C34.2828 3.35898 34.4553 3.43142 34.5825 3.56016C34.7097 3.68891 34.7812 3.86345 34.7815 4.04553V6.24289C34.7823 6.33333 34.7654 6.42304 34.7316 6.50676C34.6978 6.59049 34.6479 6.66655 34.5847 6.7305C34.5215 6.79445 34.4464 6.84501 34.3636 6.87921C34.2809 6.91341 34.1923 6.93057 34.103 6.92969C33.9232 6.92919 33.751 6.85664 33.624 6.72792C33.4971 6.59921 33.4256 6.4248 33.4254 6.24289V4.72382H27.554V7.47573L33.4226 13.1316V8.95702C33.4217 8.8667 33.4386 8.77712 33.4724 8.69351C33.5061 8.6099 33.556 8.53394 33.6191 8.47008C33.6822 8.40621 33.7572 8.35573 33.8398 8.32157C33.9224 8.28742 34.0109 8.27028 34.1002 8.27116C34.2799 8.27141 34.4522 8.34372 34.5793 8.47226C34.7065 8.6008 34.7782 8.77511 34.7787 8.95702V14.4278L38.7172 18.2245C38.8141 18.3193 38.8812 18.4411 38.9099 18.5744C38.9386 18.7077 38.9278 18.8466 38.8787 18.9737C38.8344 19.0834 38.7646 19.1806 38.6752 19.2571L36.3877 21.2013C36.2669 21.307 36.1124 21.3647 35.9528 21.3637C35.779 21.3636 35.612 21.2959 35.4861 21.1748L34.6284 20.3472V32.9524H38.3308C38.4208 32.952 38.5099 32.97 38.5929 33.0054C38.6758 33.0408 38.7508 33.0928 38.8133 33.1583C38.875 33.2219 38.9233 33.2974 38.9553 33.3804C38.9874 33.4633 39.0026 33.552 39 33.641V38.3135C38.9998 38.4954 38.9283 38.6698 38.8013 38.7986C38.6743 38.9273 38.5021 38.9998 38.3224 39.0003H0.677579ZM21.5715 37.622H37.657V34.3212H21.5724L21.5715 37.622ZM9.27798 37.622H17.4528V22.2952H9.27891L9.27798 37.622ZM1.36916 37.622H6.12901V34.3212H1.36916V37.622ZM19.9727 4.29398L35.9798 19.7596L37.2389 18.695L20.1892 2.26193L19.5061 1.62143L18.8201 2.26666L1.78168 18.695L3.03791 19.7596L19.0394 4.29398C19.1652 4.17269 19.3323 4.10504 19.5061 4.10504C19.6798 4.10504 19.8469 4.17269 19.9727 4.29398ZM20.892 31.9463C20.7123 31.9458 20.5401 31.8732 20.4131 31.7445C20.2861 31.6158 20.2147 31.4414 20.2144 31.2595V21.615C20.2147 21.4331 20.2861 21.2587 20.4131 21.13C20.5401 21.0013 20.7123 20.9287 20.892 20.9282H31.7417C31.9214 20.9287 32.0936 21.0013 32.2206 21.13C32.3476 21.2587 32.419 21.4331 32.4193 21.615V31.2595C32.419 31.4414 32.3476 31.6158 32.2206 31.7445C32.0936 31.8732 31.9214 31.9458 31.7417 31.9463H20.892ZM21.5668 30.5689H31.0632V25.2238H21.5687L21.5668 30.5689ZM21.5668 23.8615H31.0632V22.2952H21.5687L21.5668 23.8615ZM14.8675 30.601C14.6876 30.601 14.515 30.5286 14.3878 30.3998C14.2605 30.271 14.189 30.0964 14.189 29.9142C14.189 29.7321 14.2605 29.5574 14.3878 29.4286C14.515 29.2998 14.6876 29.2274 14.8675 29.2274H16.2479C16.4279 29.2274 16.6004 29.2998 16.7277 29.4286C16.8549 29.5574 16.9264 29.7321 16.9264 29.9142C16.9264 30.0964 16.8549 30.271 16.7277 30.3998C16.6004 30.5286 16.4279 30.601 16.2479 30.601H14.8675ZM16.1826 14.1632C16.1818 13.4975 16.3762 12.8465 16.7411 12.2926C17.106 11.7387 17.625 11.3068 18.2324 11.0516C18.8399 10.7964 19.5085 10.7292 20.1536 10.8587C20.7988 10.9882 21.3915 11.3085 21.8567 11.779C22.322 12.2496 22.6389 12.8493 22.7674 13.5022C22.8959 14.1551 22.8301 14.8319 22.5785 15.447C22.3268 16.0621 21.9006 16.5878 21.3537 16.9576C20.8068 17.3274 20.1638 17.5247 19.5061 17.5245C18.6251 17.5225 17.7808 17.1671 17.1582 16.5362C16.5356 15.9053 16.1854 15.0503 16.1844 14.1585L16.1826 14.1632ZM17.5349 14.168C17.535 14.5634 17.6511 14.9499 17.8685 15.2784C18.0858 15.607 18.3946 15.8629 18.7557 16.0136C19.1169 16.1644 19.5141 16.2032 19.8971 16.1252C20.28 16.0473 20.6315 15.856 20.907 15.5756C21.0898 15.3911 21.2347 15.1716 21.333 14.93C21.4314 14.6883 21.4814 14.4293 21.48 14.168C21.4857 13.9021 21.4389 13.6378 21.3424 13.3905C21.2458 13.1432 21.1014 12.9179 20.9177 12.7278C20.7339 12.5378 20.5146 12.3867 20.2724 12.2836C20.0302 12.1806 19.7702 12.1274 19.5075 12.1274C19.2448 12.1274 18.9847 12.1806 18.7425 12.2836C18.5004 12.3867 18.281 12.5378 18.0973 12.7278C17.9135 12.9179 17.7691 13.1432 17.6726 13.3905C17.576 13.6378 17.5292 13.9021 17.5349 14.168Z" fill="#0D8F75"/>
<path opacity="0.3" d="M21.9636 13.8321C21.9636 12.2669 20.71 10.998 19.1637 10.998C17.6173 10.998 16.3638 12.2669 16.3638 13.8321C16.3638 15.3974 17.6173 16.6662 19.1637 16.6662C20.71 16.6662 21.9636 15.3974 21.9636 13.8321Z" fill="#0D8F75"/>
<path opacity="0.3" d="M18.1902 22.335H7.92383V38.3948H18.1902V22.335Z" fill="#0D8F75"/>
<path opacity="0.3" d="M37.7897 33.6709H20.9902V38.3944H37.7897V33.6709Z" fill="#0D8F75"/>
</g>
<defs>
<clipPath id="clip0_1_4184">
<rect width="39" height="39" fill="white"/>
</clipPath>
</defs>
</svg>
