<svg xmlns="http://www.w3.org/2000/svg" width="71.233" height="71.233" viewBox="0 0 71.233 71.233"><defs><style>.a{fill:#068571;stroke:#068571;stroke-width:0.3px;}</style></defs><g transform="translate(0.15 0.15)"><path class="a" d="M57.473,36.506h3.089a5.237,5.237,0,1,0,0-2.078H57.473a21.947,21.947,0,0,0-5.718-13.78l5.564-5.564a6.648,6.648,0,1,0-1.469-1.47l-5.564,5.564a21.946,21.946,0,0,0-13.78-5.717V10.371a5.238,5.238,0,1,0-2.078,0V13.46a21.947,21.947,0,0,0-13.78,5.717l-5.564-5.564a6.631,6.631,0,0,0-1.658-9.4,1.039,1.039,0,0,0-1.162,1.723A4.558,4.558,0,1,1,8.47,5.328a1.039,1.039,0,0,0-.567-2,6.638,6.638,0,1,0,5.711,11.755l5.564,5.564a21.947,21.947,0,0,0-5.718,13.78H10.371a5.238,5.238,0,1,0,0,2.078H13.46a21.947,21.947,0,0,0,5.718,13.78L13.614,55.85a6.647,6.647,0,1,0,1.469,1.47l5.564-5.564a21.946,21.946,0,0,0,13.78,5.717v3.089a5.238,5.238,0,1,0,2.078,0V57.473a21.947,21.947,0,0,0,13.78-5.717l5.564,5.564a6.633,6.633,0,1,0,11.665,1.795,1.039,1.039,0,1,0-1.971.657,4.557,4.557,0,1,1-2.658-2.8,1.039,1.039,0,0,0,.76-1.934,6.631,6.631,0,0,0-6.326.811l-5.564-5.564a21.949,21.949,0,0,0,5.717-13.78Zm8.223-4.2a3.159,3.159,0,1,1-3.159,3.159A3.163,3.163,0,0,1,65.7,32.307ZM61.217,5.157a4.559,4.559,0,1,1-4.559,4.559A4.564,4.564,0,0,1,61.217,5.157Zm-28.91.08A3.159,3.159,0,1,1,35.467,8.4a3.163,3.163,0,0,1-3.159-3.159ZM5.238,38.626A3.159,3.159,0,1,1,8.4,35.467,3.163,3.163,0,0,1,5.238,38.626ZM35.467,15.513A19.953,19.953,0,1,1,15.513,35.467,19.976,19.976,0,0,1,35.467,15.513ZM9.716,65.776a4.559,4.559,0,1,1,4.559-4.559A4.564,4.564,0,0,1,9.716,65.776Zm28.91-.08a3.159,3.159,0,1,1-3.159-3.159A3.163,3.163,0,0,1,38.626,65.7Z"/><path class="a" d="M164.691,175.312h9.331a1.039,1.039,0,0,0,0-2.078h-2.414v-1.759a1.039,1.039,0,1,0-2.078,0v1.759h-3.8v-5.118a4.564,4.564,0,0,1,4.558-4.559H182.6a4.564,4.564,0,0,1,4.558,4.559v5.118h-3.8v-1.759a1.039,1.039,0,1,0-2.078,0v1.759H178.87a1.039,1.039,0,0,0,0,2.078H188.2a1.039,1.039,0,0,0,1.039-1.039v-6.157a6.644,6.644,0,0,0-6.636-6.638h-.771a8.036,8.036,0,1,0-10.774,0h-.771a6.644,6.644,0,0,0-6.636,6.638v6.157a1.039,1.039,0,0,0,1.039,1.039Zm5.8-19.792a5.958,5.958,0,1,1,5.958,5.958,5.965,5.965,0,0,1-5.958-5.958Z" transform="translate(-140.979 -127.051)"/></g></svg>