<svg width="39" height="42" viewBox="0 0 39 42" fill="none" xmlns="http://www.w3.org/2000/svg">
<g clip-path="url(#clip0_1_4232)">
<path d="M27.8709 41.1712L18.2372 40.8927V33.8058L14.2421 30.443L10.765 33.8049V40.8927H0.941895V27.0017L4.2947 24.2373L2.71654 20.7123L3.38006 17.5627L14.2421 11.3623L22.4589 15.5755L25.8892 18.9375V22.8273L25.0785 24.2373L27.8709 27.5983V41.1712Z" fill="#B3DBD3"/>
<path d="M12.8633 11.5995H13.1056L12.8633 11.3906V11.5995Z" fill="white"/>
<path d="M12.8633 11.5995H13.1056L12.8633 11.3906V11.5995Z" fill="white"/>
<mask id="mask0_1_4232" style="mask-type:luminance" maskUnits="userSpaceOnUse" x="0" y="0" width="39" height="42">
<path d="M39 0H0V42H39V0Z" fill="white"/>
</mask>
<g mask="url(#mask0_1_4232)">
<path d="M30.5049 39.1144H37.3356V40.4715H30.5049V39.1144ZM30.5049 13.6703H37.3347V15.0301H30.5058L30.5049 13.6703ZM33.0999 11.038L33.9211 10.4009L34.7424 11.038V12.4375H33.0999V11.038ZM31.4178 8.61198L33.9211 5.0456L36.4245 8.61198V12.4375H35.9751V10.7349C35.9751 10.6406 35.9535 10.5476 35.912 10.4629C35.8704 10.3783 35.81 10.3043 35.7354 10.2467L34.3009 9.13368C34.1937 9.04956 34.0614 9.00385 33.9251 9.00385C33.7888 9.00385 33.6565 9.04956 33.5493 9.13368L32.1095 10.2449C32.0349 10.3026 31.9745 10.3766 31.9329 10.4612C31.8914 10.5458 31.8698 10.6389 31.8698 10.7331V12.4357H31.4169L31.4178 8.61198ZM33.3061 0.801535V3.7819L30.3005 8.06121C30.228 8.16457 30.1887 8.28749 30.1877 8.4137V12.4348H29.8951C29.7315 12.4348 29.5747 12.4998 29.459 12.6155C29.3433 12.7312 29.2783 12.8881 29.2783 13.0517V15.6434C29.2783 15.807 29.3433 15.9639 29.459 16.0796C29.5747 16.1953 29.7315 16.2603 29.8951 16.2603H30.1921V37.8807H29.8951C29.7315 37.8807 29.5747 37.9457 29.459 38.0614C29.3433 38.177 29.2783 38.3339 29.2783 38.4975V41.0884C29.2783 41.1694 29.2943 41.2496 29.3253 41.3245C29.3563 41.3993 29.4017 41.4673 29.459 41.5246C29.5163 41.5819 29.5843 41.6273 29.6591 41.6583C29.7339 41.6893 29.8141 41.7053 29.8951 41.7053H37.9542C38.0352 41.7053 38.1154 41.6893 38.1902 41.6583C38.2651 41.6273 38.3331 41.5819 38.3903 41.5246C38.4476 41.4673 38.4931 41.3993 38.524 41.3245C38.555 41.2496 38.571 41.1694 38.571 41.0884V38.4975C38.571 38.4165 38.555 38.3363 38.524 38.2615C38.4931 38.1866 38.4476 38.1186 38.3903 38.0614C38.3331 38.0041 38.2651 37.9586 38.1902 37.9276C38.1154 37.8966 38.0352 37.8807 37.9542 37.8807H37.6493V20.5149C37.6572 20.4295 37.6473 20.3433 37.62 20.2619C37.5928 20.1806 37.5488 20.1058 37.491 20.0423C37.4332 19.9789 37.3628 19.9282 37.2843 19.8936C37.2058 19.8589 37.121 19.841 37.0351 19.841C36.9493 19.841 36.8645 19.8589 36.786 19.8936C36.7075 19.9282 36.6371 19.9789 36.5793 20.0423C36.5215 20.1058 36.4775 20.1806 36.4503 20.2619C36.423 20.3433 36.413 20.4295 36.421 20.5149V37.8807H31.4178V16.2629H36.4254V17.6377C36.4168 17.7234 36.4262 17.8101 36.4532 17.892C36.4801 17.9738 36.5239 18.0492 36.5817 18.1131C36.6395 18.177 36.7101 18.2281 36.7889 18.2631C36.8677 18.2981 36.9529 18.3161 37.0391 18.3161C37.1253 18.3161 37.2105 18.2981 37.2893 18.2631C37.3681 18.2281 37.4387 18.177 37.4965 18.1131C37.5543 18.0492 37.5981 17.9738 37.6251 17.892C37.652 17.8101 37.6614 17.7234 37.6528 17.6377V16.2629H37.9507C38.1143 16.2629 38.2711 16.1979 38.3868 16.0823C38.5025 15.9666 38.5675 15.8097 38.5675 15.6461V13.0543C38.5675 12.8907 38.5025 12.7338 38.3868 12.6181C38.2711 12.5024 38.1143 12.4375 37.9507 12.4375H37.6493V8.41635C37.6489 8.29017 37.6099 8.16714 37.5374 8.06385L34.5353 3.7819V0.827091C34.5379 0.663984 34.4773 0.506195 34.3663 0.386657C34.2553 0.267119 34.1025 0.195069 33.9396 0.185547H33.9203C33.8393 0.185547 33.759 0.201503 33.6842 0.232503C33.6094 0.263504 33.5414 0.308942 33.4841 0.366224C33.4268 0.423505 33.3814 0.491509 33.3504 0.566351C33.3194 0.641193 33.3034 0.721408 33.3034 0.802416" fill="white"/>
</g>
<path opacity="0.3" d="M37.6236 13.6836H29.5742V15.6964H37.6236V13.6836Z" fill="#0D8F75"/>
<path opacity="0.3" d="M36.6174 8.65234H30.5806V12.677H36.6174V8.65234Z" fill="#0D8F75"/>
<path opacity="0.3" d="M36.6174 7.64648H30.5806V8.65286H36.6174V7.64648Z" fill="#0D8F75"/>
<path opacity="0.3" d="M35.9339 6.63965H31.9097V7.64603H35.9339V6.63965Z" fill="#0D8F75"/>
<path opacity="0.3" d="M35.4306 5.63379H32.4126V6.64017H35.4306V5.63379Z" fill="#0D8F75"/>
<path opacity="0.3" d="M34.9281 4.62793H32.9155V5.63431H34.9281V4.62793Z" fill="#0D8F75"/>
<mask id="mask1_1_4232" style="mask-type:luminance" maskUnits="userSpaceOnUse" x="29" y="0" width="10" height="42">
<path d="M30.5049 39.1153H37.3356V40.4724H30.5049V39.1153ZM30.5049 13.6712H37.3347V15.0292H30.5058L30.5049 13.6712ZM33.1008 11.0389L33.9211 10.4018L34.7424 11.0389V12.4375H33.1008V11.0389ZM31.4178 8.61287L33.9211 5.04648L36.4245 8.61022V12.4348H35.9751V10.7358C35.9751 10.6415 35.9535 10.5485 35.912 10.4638C35.8704 10.3792 35.81 10.3052 35.7354 10.2476L34.3009 9.13456C34.1935 9.05052 34.061 9.00486 33.9247 9.00486C33.7883 9.00486 33.6558 9.05052 33.5484 9.13456L32.1095 10.2458C32.0349 10.3035 31.9745 10.3774 31.9329 10.4621C31.8914 10.5467 31.8698 10.6397 31.8698 10.734V12.4357H31.4169L31.4178 8.61287ZM33.9211 0.185547C33.7575 0.185547 33.6007 0.250538 33.485 0.366224C33.3693 0.481909 33.3043 0.638812 33.3043 0.802416V3.7819L30.3005 8.06209C30.2283 8.16553 30.1893 8.28846 30.1886 8.41459V12.4348H29.8951C29.7315 12.4348 29.5747 12.4998 29.459 12.6155C29.3433 12.7312 29.2783 12.8881 29.2783 13.0517V15.6425C29.2783 15.8061 29.3433 15.963 29.459 16.0787C29.5747 16.1944 29.7315 16.2594 29.8951 16.2594H30.193V37.8816H29.8951C29.7315 37.8816 29.5747 37.9466 29.459 38.0622C29.3433 38.1779 29.2783 38.3348 29.2783 38.4984V41.0893C29.2783 41.1703 29.2943 41.2505 29.3253 41.3254C29.3563 41.4002 29.4017 41.4682 29.459 41.5255C29.5163 41.5828 29.5843 41.6282 29.6591 41.6592C29.7339 41.6902 29.8141 41.7062 29.8951 41.7062H37.9551C38.0361 41.7062 38.1163 41.6902 38.1911 41.6592C38.2659 41.6282 38.3339 41.5828 38.3912 41.5255C38.4485 41.4682 38.4939 41.4002 38.5249 41.3254C38.5559 41.2505 38.5719 41.1703 38.5719 41.0893V38.4984C38.5719 38.4174 38.5559 38.3372 38.5249 38.2624C38.4939 38.1875 38.4485 38.1195 38.3912 38.0622C38.3339 38.005 38.2659 37.9595 38.1911 37.9285C38.1163 37.8975 38.0361 37.8816 37.9551 37.8816H37.6581V20.5149C37.6581 20.3513 37.5931 20.1944 37.4775 20.0787C37.3618 19.963 37.2049 19.8981 37.0413 19.8981C36.8777 19.8981 36.7208 19.963 36.6052 20.0787C36.4895 20.1944 36.4245 20.3513 36.4245 20.5149V37.8816H31.4178V16.2638H36.4245V17.6385C36.4245 17.8022 36.4895 17.9591 36.6052 18.0747C36.7208 18.1904 36.8777 18.2554 37.0413 18.2554C37.2049 18.2554 37.3618 18.1904 37.4775 18.0747C37.5931 17.9591 37.6581 17.8022 37.6581 17.6385V16.2638H37.956C38.1195 16.2638 38.2764 16.1988 38.3921 16.0831C38.5078 15.9674 38.5728 15.8105 38.5728 15.6469V13.0561C38.5728 12.8925 38.5078 12.7356 38.3921 12.6199C38.2764 12.5042 38.1195 12.4392 37.956 12.4392H37.6493V8.41723C37.6487 8.29095 37.6093 8.16792 37.5365 8.06473L34.5353 3.7819V0.827091C34.5374 0.66425 34.4769 0.506826 34.3662 0.387405C34.2554 0.267984 34.103 0.195711 33.9405 0.185547H33.9211Z" fill="white"/>
</mask>
<g mask="url(#mask1_1_4232)">
<path d="M38.5644 0.088606L28.8423 0.19043L29.278 41.8039L39.0002 41.7021L38.5644 0.088606Z" fill="#0D8F75"/>
</g>
<mask id="mask2_1_4232" style="mask-type:luminance" maskUnits="userSpaceOnUse" x="0" y="0" width="39" height="42">
<path d="M39 0H0V42H39V0Z" fill="white"/>
</mask>
<g mask="url(#mask2_1_4232)">
<path d="M21.2791 29.9613L22.7683 28.8051L24.2574 29.9613V32.4403H21.2791V29.9613ZM22.392 27.5379L20.2896 29.17C20.215 29.2278 20.1547 29.302 20.1133 29.3867C20.0719 29.4715 20.0505 29.5647 20.0508 29.6591V33.0571C20.0508 33.1381 20.0667 33.2183 20.0977 33.2932C20.1287 33.368 20.1742 33.436 20.2314 33.4933C20.2887 33.5506 20.3567 33.596 20.4316 33.627C20.5064 33.658 20.5866 33.674 20.6676 33.674H24.8716C24.9526 33.674 25.0328 33.658 25.1076 33.627C25.1825 33.596 25.2505 33.5506 25.3077 33.4933C25.365 33.436 25.4105 33.368 25.4414 33.2932C25.4724 33.2183 25.4884 33.1381 25.4884 33.0571V29.6591C25.4885 29.5646 25.467 29.4714 25.4255 29.3866C25.3839 29.3018 25.3234 29.2277 25.2487 29.17L23.1445 27.5379C23.0371 27.4539 22.9047 27.4082 22.7683 27.4082C22.6319 27.4082 22.4994 27.4539 22.392 27.5379Z" fill="white"/>
</g>
<mask id="mask3_1_4232" style="mask-type:luminance" maskUnits="userSpaceOnUse" x="0" y="0" width="39" height="42">
<path d="M39 0H0V42H39V0Z" fill="white"/>
</mask>
<g mask="url(#mask3_1_4232)">
<path d="M4.63302 29.9615L6.12306 28.8053L7.61222 29.9615V32.4404H4.63302V29.9615ZM5.74681 27.538L3.64348 29.1701C3.56877 29.2278 3.5083 29.302 3.46675 29.3868C3.4252 29.4715 3.40366 29.5648 3.40381 29.6592V33.0573C3.40381 33.1383 3.41976 33.2185 3.45076 33.2933C3.48176 33.3682 3.52719 33.4362 3.58447 33.4934C3.64175 33.5507 3.70974 33.5962 3.78458 33.6272C3.85941 33.6582 3.93962 33.6741 4.02062 33.6741H8.22726C8.30826 33.6741 8.38847 33.6582 8.4633 33.6272C8.53814 33.5962 8.60614 33.5507 8.66341 33.4934C8.72069 33.4362 8.76612 33.3682 8.79712 33.2933C8.82812 33.2185 8.84407 33.1383 8.84407 33.0573V29.6592C8.84422 29.5648 8.82269 29.4715 8.78113 29.3868C8.73958 29.302 8.67911 29.2278 8.6044 29.1701L6.50284 27.538C6.39562 27.4539 6.26329 27.4082 6.12702 27.4082C5.99076 27.4082 5.85843 27.4539 5.75121 27.538" fill="white"/>
</g>
<mask id="mask4_1_4232" style="mask-type:luminance" maskUnits="userSpaceOnUse" x="0" y="0" width="39" height="42">
<path d="M39 0H0V42H39V0Z" fill="white"/>
</mask>
<g mask="url(#mask4_1_4232)">
<path d="M11.3539 34.0367L14.4459 30.8801L17.5378 34.0385V40.4715H11.3539V34.0367ZM3.37061 21.598L3.17676 20.3792C3.17521 19.8017 3.31851 19.233 3.59354 18.7251C4.75579 16.5582 11.5936 13.1936 14.4432 11.9396C15.112 12.2357 17.2532 13.205 19.5108 14.4352C21.3497 15.4363 24.5466 17.3257 25.2982 18.726C25.5741 19.2339 25.7174 19.8031 25.715 20.381L25.5211 21.5997C25.2851 22.3432 24.9167 23.0379 24.4338 23.6504H12.9188C12.7552 23.6504 12.5983 23.7154 12.4827 23.8311C12.367 23.9468 12.302 24.1037 12.302 24.2673C12.302 24.4309 12.367 24.5878 12.4827 24.7035C12.5983 24.8191 12.7552 24.8841 12.9188 24.8841H24.4681L27.2279 27.6274V40.4733H18.7688V33.7829C18.7682 33.6216 18.705 33.4668 18.5926 33.3511L14.8917 29.5759C14.8318 29.5126 14.7595 29.4622 14.6794 29.4278C14.5661 29.3812 14.4414 29.3694 14.3214 29.3938C14.2013 29.4183 14.0913 29.478 14.0053 29.5653L10.3 33.3546C10.1868 33.4694 10.1234 33.6243 10.1238 33.7856V40.476H1.66469V27.6239L4.42624 24.8806H10.0515C10.2151 24.8806 10.372 24.8156 10.4877 24.6999C10.6034 24.5842 10.6684 24.4273 10.6684 24.2637C10.6684 24.1001 10.6034 23.9432 10.4877 23.8275C10.372 23.7119 10.2151 23.6469 10.0515 23.6469H4.45972C3.97748 23.0342 3.60919 22.34 3.37237 21.5971M10.8648 5.01213C10.8627 4.47144 10.983 3.93727 11.2166 3.44967C11.4502 2.96206 11.7912 2.53366 12.2139 2.19656C12.0482 2.89227 12.0632 3.61878 12.2573 4.30708C12.4515 4.99538 12.8184 5.62261 13.3231 6.12919C13.8279 6.63577 14.4538 7.00487 15.1413 7.20143C15.8289 7.39799 16.5553 7.41548 17.2515 7.25224C16.7884 7.83477 16.1555 8.25861 15.4405 8.4649C14.7256 8.67119 13.9642 8.64968 13.262 8.40337C12.5599 8.15705 11.9519 7.69815 11.5224 7.09042C11.093 6.48269 10.8635 5.75629 10.8657 5.01213M13.3594 0.308939C12.259 0.566383 11.2837 1.20177 10.6035 2.10441C9.92331 3.00705 9.58131 4.11974 9.63708 5.24863C9.69286 6.37752 10.1429 7.45107 10.9087 8.28225C11.6746 9.11343 12.7077 9.64958 13.8282 9.79727V10.8609C13.0351 11.2134 11.0851 12.1105 9.03909 13.2121C5.41137 15.1658 3.212 16.8252 2.50531 18.1426C2.1271 18.8465 1.93395 19.6349 1.94402 20.4339C1.94382 20.4634 1.94647 20.4929 1.95195 20.522L2.15902 21.8271C2.16305 21.853 2.16864 21.8786 2.17576 21.9038C2.42987 22.7338 2.82383 23.5143 3.34065 24.2118L0.609065 26.9242C0.550785 26.9818 0.504562 27.0504 0.473093 27.1261C0.441625 27.2017 0.425542 27.2829 0.425784 27.3648V41.0893C0.425784 41.1703 0.441738 41.2505 0.472736 41.3254C0.503733 41.4002 0.549167 41.4682 0.606443 41.5255C0.663719 41.5828 0.731716 41.6282 0.806551 41.6592C0.881386 41.6902 0.961593 41.7062 1.04259 41.7062H27.843C27.924 41.7062 28.0042 41.6902 28.079 41.6592C28.1539 41.6282 28.2219 41.5828 28.2791 41.5255C28.3364 41.4682 28.3818 41.4002 28.4128 41.3254C28.4438 41.2505 28.4598 41.1703 28.4598 41.0893V27.3675C28.4601 27.2856 28.4442 27.2045 28.4129 27.1288C28.3816 27.0532 28.3355 26.9845 28.2774 26.9269L25.5458 24.2144C26.0631 23.5168 26.4574 22.736 26.7116 21.9055C26.7177 21.8817 26.7239 21.8562 26.7274 21.8298L26.9345 20.5246C26.939 20.4955 26.9417 20.466 26.9424 20.4365C26.9524 19.6357 26.7586 18.8454 26.3794 18.14C24.8814 15.3465 16.855 11.6611 15.0592 10.8618V9.79992C16.036 9.67642 16.951 9.25481 17.6796 8.59251C18.4082 7.93021 18.915 7.05942 19.131 6.0987C19.1598 5.9739 19.1491 5.84321 19.1003 5.72477C19.0515 5.60633 18.9671 5.50603 18.8587 5.43777C18.7507 5.36985 18.6242 5.33741 18.4968 5.34499C18.3695 5.35258 18.2477 5.39981 18.1485 5.48007C17.6249 5.90341 16.9714 6.13339 16.2981 6.13131C15.7385 6.12921 15.1909 5.96951 14.7179 5.67052C14.2449 5.37152 13.8657 4.94532 13.6238 4.44075C13.3818 3.93618 13.2869 3.37365 13.3498 2.81761C13.4128 2.26156 13.6311 1.7345 13.9797 1.29681C14.0524 1.20624 14.098 1.097 14.1113 0.981649C14.1247 0.866303 14.1052 0.749536 14.0551 0.644777C14.005 0.540017 13.9264 0.451519 13.8283 0.389458C13.7301 0.327397 13.6165 0.294295 13.5004 0.293958C13.453 0.29366 13.4057 0.298685 13.3594 0.308939Z" fill="white"/>
</g>
<mask id="mask5_1_4232" style="mask-type:luminance" maskUnits="userSpaceOnUse" x="0" y="0" width="29" height="42">
<path d="M11.3539 34.0366L14.4459 30.88L17.5378 34.0384V40.4759H11.3539V34.0366ZM3.37061 21.5988L3.17499 20.3791C3.17375 19.8015 3.31735 19.2328 3.59266 18.725C4.75491 16.5581 11.5927 13.1952 14.4423 11.9395C15.1111 12.2365 17.2524 13.2049 19.509 14.4352C21.348 15.4362 24.5448 17.3256 25.2973 18.7268C25.5722 19.2347 25.7155 19.8034 25.7141 20.3809L25.5194 21.5988C25.2825 22.3418 24.9139 23.0361 24.4311 23.6485H12.9188C12.7552 23.6485 12.5983 23.7135 12.4827 23.8292C12.367 23.9449 12.302 24.1018 12.302 24.2654C12.302 24.429 12.367 24.5859 12.4827 24.7016C12.5983 24.8173 12.7552 24.8823 12.9188 24.8823H24.4681L27.2279 27.6256V40.475H18.7688V33.7881C18.7691 33.6264 18.7058 33.471 18.5926 33.3554L14.8917 29.5802C14.8312 29.5175 14.7591 29.4672 14.6794 29.4321C14.566 29.3853 14.4412 29.3734 14.3209 29.3979C14.2007 29.4223 14.0905 29.4821 14.0044 29.5696L10.2991 33.3589C10.1862 33.4743 10.1229 33.6293 10.1229 33.7908V40.4811H1.66381V27.6238L4.42535 24.8805H10.0507C10.2142 24.8805 10.3711 24.8155 10.4868 24.6998C10.6025 24.5842 10.6675 24.4272 10.6675 24.2636C10.6675 24.1 10.6025 23.9431 10.4868 23.8275C10.3711 23.7118 10.2142 23.6468 10.0507 23.6468H4.45972C3.97766 23.034 3.60938 22.3398 3.37237 21.597M10.8648 5.01203C10.8625 4.4713 10.9827 3.93708 11.2164 3.44944C11.45 2.96181 11.791 2.53343 12.2139 2.19646C12.0697 2.81291 12.0664 3.45397 12.2043 4.07188C12.3422 4.68979 12.6177 5.26861 13.0103 5.76522C13.403 6.26184 13.9026 6.66344 14.472 6.94012C15.0414 7.21679 15.6659 7.36141 16.2989 7.36318C16.6197 7.36285 16.9394 7.3253 17.2515 7.25126C16.7884 7.83379 16.1555 8.25763 15.4405 8.46392C14.7256 8.67021 13.9642 8.6487 13.262 8.40238C12.5599 8.15607 11.9519 7.69717 11.5224 7.08944C11.093 6.48171 10.8635 5.75531 10.8657 5.01115M13.3594 0.309719C12.2595 0.567551 11.2848 1.20298 10.6051 2.10539C9.9253 3.0078 9.5835 4.12004 9.63915 5.24849C9.6948 6.37695 10.1444 7.45015 10.9096 8.28128C11.6749 9.11242 12.7074 9.64884 13.8273 9.79717V10.8608C13.0343 11.2133 11.0843 12.1104 9.03909 13.2137C5.41137 15.1675 3.212 16.8268 2.50531 18.1425C2.1275 18.8465 1.93438 19.6348 1.94402 20.4338C1.94451 20.4633 1.94686 20.4927 1.95107 20.5219L2.15902 21.8261C2.16256 21.8521 2.16816 21.8777 2.17576 21.9028C2.42944 22.733 2.82343 23.5136 3.34065 24.2108L0.609065 26.9232C0.550785 26.9808 0.504562 27.0494 0.473093 27.1251C0.441625 27.2008 0.425542 27.2819 0.425784 27.3639V41.0901C0.425784 41.2537 0.490769 41.4106 0.606443 41.5263C0.722118 41.642 0.879006 41.707 1.04259 41.707H27.8421C28.0057 41.707 28.1626 41.642 28.2782 41.5263C28.3939 41.4106 28.4589 41.2537 28.4589 41.0901V27.3674C28.4593 27.2855 28.4433 27.2044 28.412 27.1287C28.3807 27.0531 28.3346 26.9844 28.2765 26.9268L25.5449 24.2143C26.0621 23.5171 26.4561 22.7365 26.7098 21.9063C26.7171 21.8812 26.7224 21.8556 26.7257 21.8297L26.9336 20.5254C26.9381 20.4962 26.9408 20.4668 26.9416 20.4373C26.9517 19.6364 26.7579 18.8461 26.3785 18.1408C24.8805 15.3472 16.8532 11.661 15.0583 10.8617V9.79982C16.035 9.67639 16.95 9.2548 17.6785 8.59247C18.407 7.93014 18.9136 7.0593 19.1292 6.0986C19.1559 5.97482 19.1438 5.84584 19.0946 5.72916C19.0455 5.61248 18.9616 5.51375 18.8544 5.44639C18.7472 5.37902 18.6219 5.34628 18.4954 5.3526C18.369 5.35892 18.2476 5.40401 18.1476 5.48173C17.6241 5.9052 16.9705 6.1352 16.2972 6.13297C15.7377 6.13108 15.19 5.97155 14.7169 5.67267C14.2439 5.37378 13.8647 4.94765 13.6227 4.4431C13.3807 3.93856 13.2857 3.37603 13.3487 2.82C13.4117 2.26398 13.6301 1.73695 13.9789 1.29935C14.0525 1.20889 14.099 1.09938 14.113 0.983555C14.1269 0.867725 14.1077 0.750316 14.0576 0.644954C14.0075 0.539592 13.9286 0.450596 13.8299 0.388295C13.7313 0.325994 13.617 0.292943 13.5004 0.292975C13.4529 0.29275 13.4055 0.298374 13.3594 0.309719Z" fill="white"/>
</mask>
<g mask="url(#mask5_1_4232)">
<path d="M28.4545 -0.000163204L0 0.297852L0.436681 42.0003L28.8912 41.7023L28.4545 -0.000163204Z" fill="#0D8F75"/>
</g>
<mask id="mask6_1_4232" style="mask-type:luminance" maskUnits="userSpaceOnUse" x="3" y="27" width="6" height="7">
<path d="M4.63214 29.9612L6.12306 28.805L7.61133 29.9612V32.4401H4.63214V29.9612ZM5.74592 27.5377L3.64348 29.1707C3.56888 29.2283 3.50849 29.3023 3.46694 29.3869C3.42539 29.4716 3.4038 29.5646 3.40381 29.6589V33.057C3.40381 33.138 3.41976 33.2182 3.45076 33.293C3.48176 33.3679 3.52719 33.4359 3.58447 33.4932C3.64174 33.5504 3.70974 33.5959 3.78458 33.6269C3.85941 33.6579 3.93962 33.6738 4.02062 33.6738H8.22638C8.30738 33.6738 8.38759 33.6579 8.46242 33.6269C8.53726 33.5959 8.60525 33.5504 8.66253 33.4932C8.71981 33.4359 8.76524 33.3679 8.79624 33.293C8.82724 33.2182 8.84319 33.138 8.84319 33.057V29.6589C8.8432 29.5646 8.8216 29.4716 8.78006 29.3869C8.73851 29.3023 8.67811 29.2283 8.60352 29.1707L6.49755 27.5377C6.39075 27.4538 6.25887 27.4082 6.12306 27.4082C5.98647 27.4084 5.85383 27.454 5.74592 27.5377Z" fill="white"/>
</mask>
<g mask="url(#mask6_1_4232)">
<path d="M8.84041 27.3514L3.33789 27.4092L3.4043 33.73L8.90682 33.6722L8.84041 27.3514Z" fill="#0D8F75"/>
</g>
<mask id="mask7_1_4232" style="mask-type:luminance" maskUnits="userSpaceOnUse" x="20" y="27" width="6" height="7">
<path d="M21.2788 29.9613L22.768 28.8051L24.2571 29.9613V32.4403H21.2788V29.9613ZM22.3917 27.5379L20.2893 29.1708C20.2152 29.2288 20.1553 29.3029 20.1142 29.3875C20.0731 29.4721 20.0519 29.565 20.0522 29.6591V33.0571C20.0522 33.1381 20.0682 33.2183 20.0992 33.2932C20.1302 33.368 20.1756 33.436 20.2329 33.4933C20.2902 33.5506 20.3582 33.596 20.433 33.627C20.5079 33.658 20.5881 33.674 20.6691 33.674H24.8713C24.9523 33.674 25.0325 33.658 25.1073 33.627C25.1822 33.596 25.2502 33.5506 25.3074 33.4933C25.3647 33.436 25.4102 33.368 25.4412 33.2932C25.4722 33.2183 25.4881 33.1381 25.4881 33.0571V29.6591C25.4882 29.5648 25.4668 29.4719 25.4254 29.3872C25.384 29.3026 25.3238 29.2286 25.2493 29.1708L23.1442 27.5379C23.0368 27.4539 22.9044 27.4082 22.768 27.4082C22.6316 27.4082 22.4991 27.4539 22.3917 27.5379Z" fill="white"/>
</mask>
<g mask="url(#mask7_1_4232)">
<path d="M25.4869 27.3514L19.9844 27.4092L20.0508 33.73L25.5533 33.6722L25.4869 27.3514Z" fill="#0D8F75"/>
</g>
<path opacity="0.3" d="M37.6236 38.8389H29.5742V40.8516H37.6236V38.8389Z" fill="#0D8F75"/>
</g>
<defs>
<clipPath id="clip0_1_4232">
<rect width="39" height="42" fill="white"/>
</clipPath>
</defs>
</svg>
