<svg width="36" height="37" viewBox="0 0 36 37" fill="none" xmlns="http://www.w3.org/2000/svg">
<g clip-path="url(#clip0_1_4163)">
<path d="M26.9501 10.7844C26.9754 10.7865 27.0009 10.7865 27.0262 10.7844C27.7953 10.7258 28.516 10.3887 29.052 9.83683C29.588 9.28501 29.902 8.55682 29.9346 7.79013C29.9222 7.49541 29.9965 7.2035 30.1485 6.95021C30.3004 6.69693 30.5234 6.49328 30.7901 6.36427C31.0989 6.19627 31.4362 6.0863 31.7852 6.03989C31.9429 6.02429 32.088 5.94699 32.1884 5.82499C32.2889 5.70299 32.3365 5.54628 32.3208 5.38935C32.3051 5.23241 32.2274 5.0881 32.1048 4.98816C31.9822 4.88822 31.8247 4.84083 31.667 4.85643C30.8985 4.89016 30.1708 5.21039 29.6288 5.75346C29.0868 6.29652 28.77 7.02265 28.7415 7.78745C28.75 8.08773 28.6736 8.38435 28.5209 8.64352C28.3682 8.90269 28.1455 9.11401 27.878 9.25341C27.569 9.43031 27.2308 9.55102 26.8793 9.60987C26.7291 9.62831 26.5917 9.70301 26.4949 9.81875C26.3981 9.9345 26.3494 10.0826 26.3585 10.2329C26.3676 10.3831 26.434 10.5243 26.5441 10.6276C26.6541 10.7309 26.7997 10.7886 26.951 10.7889" fill="#0D8F75"/>
<path d="M26.9501 10.7844C26.9754 10.7865 27.0009 10.7865 27.0262 10.7844C27.7953 10.7258 28.516 10.3887 29.052 9.83683C29.588 9.28501 29.902 8.55682 29.9346 7.79013C29.9222 7.49541 29.9965 7.2035 30.1485 6.95021C30.3004 6.69693 30.5234 6.49328 30.79 6.36427C31.0989 6.19627 31.4362 6.0863 31.7852 6.03989C31.9429 6.02429 32.088 5.94699 32.1884 5.82499C32.2889 5.70299 32.3365 5.54628 32.3208 5.38935C32.3051 5.23241 32.2274 5.0881 32.1048 4.98816C31.9822 4.88822 31.8247 4.84083 31.667 4.85643C30.8985 4.89016 30.1708 5.21039 29.6288 5.75346C29.0868 6.29652 28.77 7.02265 28.7415 7.78745C28.75 8.08773 28.6736 8.38435 28.5209 8.64352C28.3682 8.90269 28.1455 9.11401 27.878 9.25341C27.569 9.43031 27.2308 9.55102 26.8793 9.60987C26.7291 9.62831 26.5917 9.70301 26.4949 9.81875C26.3981 9.9345 26.3494 10.0826 26.3585 10.2329C26.3676 10.3831 26.434 10.5243 26.5441 10.6276C26.6541 10.7309 26.7997 10.7886 26.951 10.7889" stroke="white" stroke-width="0.3"/>
<path d="M1.69226 36.9986C1.60127 36.9945 1.51202 36.9723 1.42974 36.9335C1.34746 36.8946 1.27379 36.8398 1.21304 36.7723C1.1517 36.7051 1.1043 36.6265 1.07355 36.541C1.04281 36.4555 1.02934 36.3648 1.0339 36.2741L1.78272 22.7169L0.0181501 15.0851C0.0181501 15.0753 0.0181501 15.0655 0.0136715 15.0556C0.00853669 15.0307 0.00554019 15.0054 0.00471427 14.9799C-0.0213346 14.6165 0.0609821 14.2536 0.241351 13.9365C0.42172 13.6195 0.69212 13.3624 1.01867 13.1976C1.1016 13.1544 1.1875 13.1172 1.27575 13.0862C1.10205 11.6567 1.25515 10.2067 1.72361 8.84428L0.0253159 2.65608C0.0097504 2.59728 0.00133015 2.53685 0.000235656 2.47606C-0.000236102 2.38514 0.0173417 2.29502 0.0519604 2.21087C0.0865792 2.12673 0.137558 2.05021 0.201971 1.98571C0.266384 1.92121 0.342964 1.87 0.427317 1.83502C0.51167 1.80003 0.602137 1.78197 0.693525 1.78185H3.67897C3.82039 1.78268 3.95822 1.82625 4.0742 1.90678C4.19017 1.9873 4.27881 2.10099 4.32837 2.23277L4.80042 0.51284C4.84114 0.36716 4.92849 0.238663 5.04924 0.146836C5.16999 0.0550077 5.31754 0.00485713 5.46952 0.00398837H8.45407C8.51449 0.00461954 8.57463 0.0123975 8.63321 0.0271585C8.72156 0.0503448 8.80433 0.0909191 8.87664 0.146482C8.94895 0.202045 9.00933 0.271469 9.0542 0.350649C9.14566 0.509159 9.17014 0.697302 9.12228 0.873759L8.02143 4.89288C8.35748 4.79563 8.70604 4.7479 9.05599 4.75119C9.32394 4.7513 9.59113 4.77938 9.85319 4.83496C10.1655 3.94346 10.7057 3.14825 11.4208 2.52761C12.1358 1.90697 13.001 1.48231 13.9312 1.29543C14.8613 1.10855 15.8243 1.1659 16.7254 1.46183C17.6265 1.75776 18.4346 2.28206 19.0702 2.98313C19.8962 2.55822 20.8176 2.35011 21.7471 2.37849C22.6766 2.40687 23.5835 2.67081 24.3818 3.14532C24.9048 2.01973 25.7989 1.10586 26.9157 0.555332C28.0325 0.0048065 29.305 -0.149283 30.5219 0.118629C31.7389 0.386541 32.8272 1.06035 33.6063 2.02826C34.3854 2.99618 34.8085 4.20002 34.8053 5.44005V13.104C34.8662 13.1299 34.9254 13.1566 34.9782 13.1851C35.3044 13.3506 35.5747 13.6076 35.7554 13.9245C35.9361 14.2413 36.0194 14.6039 35.9949 14.9674C35.9947 15.0071 35.9896 15.0466 35.9796 15.0851L34.2169 22.7134L34.9657 36.275V36.3089C34.9654 36.4917 34.8923 36.667 34.7624 36.7964C34.6324 36.9257 34.4562 36.9984 34.2724 36.9986H1.69226ZM1.6618 14.4167C1.58096 14.4531 1.51387 14.5142 1.47023 14.5911C1.42659 14.668 1.40867 14.7567 1.41906 14.8444L3.1917 22.5022C3.20688 22.5654 3.21201 22.6307 3.20692 22.6955L2.49035 35.6173H33.563L32.8464 22.6955C32.8421 22.6316 32.8472 22.5673 32.8616 22.5048L34.6325 14.8551C34.6294 14.7646 34.6022 14.6765 34.5535 14.5999C34.5049 14.5233 34.4366 14.461 34.3557 14.4194C34.2627 14.37 34.1572 14.3486 34.0522 14.358C33.9472 14.3673 33.8472 14.4069 33.7645 14.4719C33.4243 14.739 33.0038 14.8846 32.5705 14.8854C32.065 14.8869 31.5796 14.6889 31.2207 14.3347L30.4548 13.579C30.3531 13.4811 30.217 13.4263 30.0755 13.4263C29.9339 13.4263 29.7979 13.4811 29.6961 13.579L29.0154 14.2438C28.6539 14.5952 28.1686 14.7919 27.6633 14.7919C27.1579 14.7919 26.6727 14.5952 26.3112 14.2438L25.6296 13.5781C25.5278 13.4802 25.3918 13.4254 25.2502 13.4254C25.1086 13.4254 24.9726 13.4802 24.8709 13.5781L24.1848 14.2447C23.8233 14.5961 23.338 14.7928 22.8327 14.7928C22.3273 14.7928 21.842 14.5961 21.4806 14.2447L20.7989 13.579C20.6972 13.4811 20.5612 13.4263 20.4196 13.4263C20.278 13.4263 20.142 13.4811 20.0402 13.579L19.3586 14.2438C18.9971 14.5952 18.5119 14.7919 18.0065 14.7919C17.5012 14.7919 17.0159 14.5952 16.6544 14.2438L15.9728 13.5781C15.871 13.4802 15.735 13.4254 15.5934 13.4254C15.4519 13.4254 15.3158 13.4802 15.2141 13.5781L14.5324 14.2429C14.171 14.5943 13.6857 14.791 13.1804 14.791C12.675 14.791 12.1897 14.5943 11.8283 14.2429L11.1466 13.5772C11.0449 13.4793 10.9088 13.4245 10.7673 13.4245C10.6257 13.4245 10.4897 13.4793 10.3879 13.5772L9.70629 14.242C9.34483 14.5934 8.85954 14.7901 8.3542 14.7901C7.84885 14.7901 7.36356 14.5934 7.0021 14.242L6.32046 13.5763C6.21872 13.4784 6.08269 13.4236 5.94112 13.4236C5.79954 13.4236 5.66352 13.4784 5.56178 13.5763L4.79235 14.3294C4.45734 14.6559 4.01429 14.8499 3.54598 14.8752C3.07767 14.9004 2.61613 14.7552 2.2476 14.4666C2.15386 14.3903 2.03641 14.3487 1.91529 14.349C1.82654 14.3509 1.73957 14.3741 1.6618 14.4167ZM31.3998 12.5907L32.171 13.3455C32.2651 13.4379 32.3899 13.4928 32.5219 13.5C32.6538 13.5073 32.7839 13.4663 32.8876 13.3847C33.048 13.2596 33.2269 13.1598 33.4179 13.0889V5.44005C33.4179 4.36301 32.9878 3.33007 32.2223 2.56849C31.4568 1.8069 30.4186 1.37905 29.3361 1.37905C28.2535 1.37905 27.2153 1.8069 26.4498 2.56849C25.6843 3.33007 25.2542 4.36301 25.2542 5.44005V5.5363H25.2507V12.0418C25.7465 12.0493 26.2207 12.245 26.5763 12.5889L27.258 13.2537C27.3597 13.3517 27.4957 13.4064 27.6373 13.4064C27.7789 13.4064 27.9149 13.3517 28.0167 13.2537L28.6974 12.5889C29.0588 12.2374 29.5441 12.0405 30.0495 12.0405C30.5549 12.0405 31.0402 12.2374 31.4016 12.5889L31.3998 12.5907ZM4.12056 7.73746C3.77571 7.80608 3.47027 8.16254 3.21319 8.79526C2.64081 10.1661 2.4589 11.6674 2.6874 13.1343C2.83759 13.1996 2.97877 13.2838 3.1075 13.3847C3.2112 13.4663 3.34127 13.5073 3.47325 13.5C3.60522 13.4928 3.72999 13.4379 3.82408 13.3455L4.5944 12.5916C4.70935 12.4777 4.8392 12.3796 4.98045 12.3002C4.96109 11.4686 5.11955 10.6423 5.44533 9.87624C5.52752 9.71662 5.66918 9.5953 5.84006 9.53818C6.01094 9.48107 6.19749 9.49269 6.35987 9.57057C6.5249 9.65016 6.65191 9.79105 6.71356 9.96289C6.77521 10.1347 6.76657 10.3238 6.68949 10.4894V10.4956C6.49068 11.0035 6.38569 11.543 6.37957 12.0881C6.72892 12.1642 7.04944 12.3372 7.30396 12.5871L7.98561 13.2519C8.08734 13.3499 8.22337 13.4047 8.36494 13.4047C8.50652 13.4047 8.64254 13.3499 8.74428 13.2519L9.42503 12.5871C9.73328 12.2871 10.1333 12.098 10.5617 12.0495C10.9902 12.0011 11.4226 12.0962 11.7906 12.3198C11.8141 11.6919 11.7127 11.0657 11.4924 10.4769C11.4122 10.3126 11.4009 10.1234 11.4609 9.95084C11.521 9.77828 11.6475 9.63653 11.8126 9.55676C11.9777 9.47699 12.1679 9.46574 12.3413 9.52549C12.5148 9.58524 12.6572 9.71108 12.7374 9.87535C13.1675 10.9955 13.2951 12.2083 13.1073 13.3927C13.1317 13.3957 13.1562 13.3972 13.1808 13.3972C13.3238 13.398 13.4615 13.343 13.5642 13.2439L14.2458 12.5782C14.3807 12.4469 14.5344 12.3361 14.7017 12.2494C14.8848 11.7534 15.1333 11.2838 15.4407 10.8529C15.3425 10.1442 15.1572 9.45016 14.8889 8.78635C14.6319 8.15363 14.3246 7.79806 13.9771 7.72855C13.9319 7.72018 13.886 7.716 13.84 7.71607C13.3673 7.78123 12.9298 8.00063 12.5959 8.33988C12.5084 8.42444 12.4009 8.48573 12.2833 8.51811C12.2217 8.53905 12.1575 8.55135 12.0925 8.55465C11.9404 8.55468 11.7925 8.50472 11.6718 8.41255C11.5511 8.32037 11.4644 8.19114 11.4252 8.04491C11.2821 7.51722 10.9751 7.04799 10.548 6.70423C10.1209 6.36046 9.59561 6.15973 9.04704 6.1307C8.49907 6.16345 7.97502 6.36546 7.54793 6.70859C7.12084 7.05172 6.81199 7.51886 6.66441 8.04491C6.63519 8.16427 6.57316 8.27319 6.48527 8.35949C6.42149 8.42204 6.34594 8.47147 6.26294 8.50495C6.17995 8.53844 6.09114 8.55533 6.00158 8.55465C5.90955 8.55491 5.81839 8.537 5.73337 8.50197C5.64834 8.46694 5.57115 8.41548 5.50624 8.35058C5.17171 8.01125 4.73353 7.79187 4.26029 7.72676C4.21348 7.72586 4.16669 7.72944 4.12056 7.73746ZM21.7591 12.5907L22.4408 13.2564C22.5425 13.3544 22.6785 13.4091 22.8201 13.4091C22.9617 13.4091 23.0977 13.3544 23.1995 13.2564L23.873 12.5996V11.2433C23.4799 10.8043 23.0051 10.4451 22.4748 10.1855C21.8257 9.85961 21.1086 9.69019 20.3815 9.69088C19.5319 9.69009 18.6982 9.91975 17.97 10.3552C17.2418 10.7906 16.6467 11.4153 16.2486 12.1621C16.5049 12.2552 16.7382 12.4016 16.933 12.5916L17.6146 13.2564C17.7164 13.3544 17.8524 13.4091 17.994 13.4091C18.1355 13.4091 18.2716 13.3544 18.3733 13.2564L19.055 12.5916C19.4163 12.24 19.9016 12.0432 20.407 12.0432C20.9125 12.0432 21.3978 12.2391 21.7591 12.5907ZM14.2422 6.38201C14.6995 6.50544 15.117 6.74431 15.4543 7.07546C15.7915 7.40662 16.0371 7.81883 16.1671 8.27215C16.3444 8.71336 16.4908 9.16627 16.6051 9.62761C17.6288 8.8129 18.8904 8.35037 20.2006 8.3094C21.5108 8.26842 22.7991 8.65122 23.8721 9.40036V5.4356C23.8723 5.12498 23.899 4.81493 23.9519 4.50879C23.274 4.028 22.4648 3.76465 21.6324 3.75398C20.8 3.74331 19.9842 3.98583 19.2941 4.44909C19.144 4.54963 18.9605 4.58791 18.7824 4.55579C18.6044 4.52366 18.4461 4.42367 18.3411 4.27709C18.0274 3.8357 17.628 3.46123 17.1666 3.17575C16.7052 2.89028 16.191 2.69957 15.6544 2.61486C15.1177 2.53015 14.5694 2.55316 14.0419 2.68252C13.5143 2.81189 13.0181 3.04499 12.5825 3.36811C11.8969 3.87107 11.3879 4.57605 11.1278 5.38302C11.645 5.74917 12.0734 6.22567 12.3818 6.77768C12.8156 6.50701 13.3139 6.356 13.8257 6.34012C13.9656 6.34053 14.1051 6.35456 14.2422 6.38201ZM2.67039 7.06642C2.98175 6.72083 3.3955 6.4827 3.85184 6.38646C3.91544 6.37488 3.97098 6.36597 4.02293 6.36062L3.14781 3.16136H1.5991L2.67039 7.06642ZM5.04495 4.83852L5.55372 6.68857C5.60836 6.71708 5.6621 6.74649 5.71584 6.77768C5.87635 6.49751 6.0661 6.23495 6.28194 5.99435L7.5458 1.37815H5.99531L5.04495 4.83852Z" fill="#0D8F75"/>
<path d="M13.2284 22.6579H22.775C22.9332 22.6579 23.0849 22.5954 23.1968 22.4841C23.3087 22.3728 23.3715 22.2218 23.3715 22.0644V18.4998C23.3715 18.3424 23.3087 18.1914 23.1968 18.0801C23.0849 17.9688 22.9332 17.9063 22.775 17.9062H13.2284C13.0702 17.9062 12.9184 17.9688 12.8065 18.0801C12.6947 18.1914 12.6318 18.3424 12.6318 18.4998V22.0644C12.6318 22.2218 12.6947 22.3728 12.8065 22.4841C12.9184 22.5954 13.0702 22.6579 13.2284 22.6579ZM13.8249 19.0933H22.1776V21.4691H13.8249V19.0933Z" fill="#0D8F75" stroke="white" stroke-width="0.3"/>
<path opacity="0.3" d="M1.22461 13.334L34.9038 13.4053L33.4106 22.8382L34.6001 36.4462H1.45839L2.16243 23.2713L1.22461 13.334Z" fill="#0D8F75"/>
</g>
<defs>
<clipPath id="clip0_1_4163">
<rect width="36" height="37" fill="white"/>
</clipPath>
</defs>
</svg>
