<svg xmlns="http://www.w3.org/2000/svg" width="67.902" height="51.144" viewBox="0 0 67.902 51.144"><defs><style>.a{fill:#068571;}</style></defs><g transform="translate(-13.838 -80.508)"><path class="a" d="M485.294,237.068a.97.97,0,0,1-.97-.97v-6.043a.97.97,0,1,1,1.94,0V236.1A.97.97,0,0,1,485.294,237.068Z" transform="translate(-404.524 -127.747)"/><path class="a" d="M80.77,181.052H14.808a.97.97,0,0,1-.97-.97V138.933a.97.97,0,0,1,.97-.97h5.054a.97.97,0,0,1,0,1.94H15.778v39.209H79.8v-5.607a.97.97,0,0,1,1.94,0v6.577A.97.97,0,0,1,80.77,181.052Z" transform="translate(0 -49.4)"/><path class="a" d="M485.294,314.778a.97.97,0,0,1-.97-.97v-6.053a.97.97,0,0,1,1.94,0v6.053A.97.97,0,0,1,485.294,314.778Z" transform="translate(-404.524 -194.553)"/><path class="a" d="M454.3,147.828a.97.97,0,0,1-.97-.97V139.9h-4.084a.97.97,0,1,1,0-1.94H454.3a.97.97,0,0,1,.97.97v7.925A.97.97,0,0,1,454.3,147.828Z" transform="translate(-373.53 -49.4)"/><path class="a" d="M106.69,147.147H50.821a.97.97,0,0,1-.97-.97V105.66a.97.97,0,0,1,.97-.97h5.127a.97.97,0,0,1,0,1.94H51.791v38.577H105.72V106.63h-4.161a.97.97,0,1,1,0-1.94h5.131a.97.97,0,0,1,.97.97v40.517A.97.97,0,0,1,106.69,147.147Z" transform="translate(-30.964 -20.792)"/><path class="a" d="M250.051,126.364a.97.97,0,0,1-.97-.97V89.529a.97.97,0,0,1,.27-.671c5.744-6,13.219-8.647,23.533-8.324a.97.97,0,0,1,.94.97v38.255a.97.97,0,1,1-1.94,0V82.453c-9.083-.11-15.734,2.273-20.863,7.469v35.472a.97.97,0,0,1-.97.97Z" transform="translate(-202.262)"/><path class="a" d="M110.151,126.367a.97.97,0,0,1-.97-.97V89.926c-5.134-5.2-11.808-7.607-20.872-7.469v37.306a.97.97,0,0,1-1.94,0V81.507a.97.97,0,0,1,.941-.97c10.309-.32,17.789,2.328,23.542,8.324a.97.97,0,0,1,.27.671V125.4a.97.97,0,0,1-.97.97Z" transform="translate(-62.362 -0.003)"/><path class="a" d="M250.021,361.11a.97.97,0,0,1-.428-1.843c7.469-3.652,22.475-5.647,23.109-5.73a.97.97,0,0,1,.252,1.924c-.153.02-15.327,2.037-22.5,5.55a.969.969,0,0,1-.429.1Z" transform="translate(-202.232 -234.744)"/><path class="a" d="M110.168,361.12a.968.968,0,0,1-.426-.1c-7.187-3.515-22.356-5.529-22.5-5.55a.97.97,0,1,1,.242-1.925h.01c.634.083,15.638,2.078,23.108,5.73a.97.97,0,0,1-.427,1.843Z" transform="translate(-62.379 -234.754)"/><path class="a" d="M284.574,157.333a.97.97,0,0,1-.514-1.794,27.258,27.258,0,0,1,13.738-4.225.97.97,0,1,1,.056,1.94,25.345,25.345,0,0,0-12.768,3.932.971.971,0,0,1-.511.146Z" transform="translate(-231.943 -60.879)"/><path class="a" d="M284.574,205.269a.97.97,0,0,1-.514-1.794,27.269,27.269,0,0,1,13.737-4.221.944.944,0,0,1,1,.888c0,.018,0,.035,0,.053a.97.97,0,0,1-.94,1,25.362,25.362,0,0,0-12.769,3.933.969.969,0,0,1-.511.142Z" transform="translate(-231.943 -102.098)"/><path class="a" d="M284.574,253.174a.97.97,0,0,1-.514-1.794,27.257,27.257,0,0,1,13.738-4.225.97.97,0,1,1,.056,1.94,25.333,25.333,0,0,0-12.768,3.933.972.972,0,0,1-.511.146Z" transform="translate(-231.943 -143.283)"/><path class="a" d="M284.545,301.069a.97.97,0,0,1-.514-1.8,27.263,27.263,0,0,1,13.738-4.226.97.97,0,1,1,.056,1.94,25.347,25.347,0,0,0-12.768,3.934.97.97,0,0,1-.511.147Z" transform="translate(-231.914 -184.461)"/><path class="a" d="M134.254,157.334a.971.971,0,0,1-.511-.147,25.345,25.345,0,0,0-12.768-3.932.97.97,0,0,1-.941-1,.983.983,0,0,1,1-.941,27.258,27.258,0,0,1,13.738,4.225.97.97,0,0,1-.514,1.794Z" transform="translate(-91.306 -60.881)"/><path class="a" d="M134.254,205.244a.97.97,0,0,1-.511-.147,25.363,25.363,0,0,0-12.769-3.933.97.97,0,0,1-.94-1,.956.956,0,0,1,.971-.942h.027a27.269,27.269,0,0,1,13.737,4.225.97.97,0,0,1-.514,1.794Z" transform="translate(-91.306 -102.072)"/><path class="a" d="M134.248,253.168a.971.971,0,0,1-.511-.147,25.332,25.332,0,0,0-12.768-3.932.97.97,0,1,1,.056-1.94,27.258,27.258,0,0,1,13.738,4.225.97.97,0,0,1-.514,1.794Z" transform="translate(-91.3 -143.277)"/><path class="a" d="M134.254,301.09a.971.971,0,0,1-.511-.147,25.348,25.348,0,0,0-12.768-3.933.97.97,0,0,1-.941-1,.987.987,0,0,1,1-.942,27.264,27.264,0,0,1,13.738,4.223.97.97,0,0,1-.514,1.794Z" transform="translate(-91.307 -184.481)"/></g></svg>