<svg xmlns="http://www.w3.org/2000/svg" width="75" height="61.26" viewBox="0 0 75 61.26"><defs><style>.a{fill:#068571;}</style></defs><g transform="translate(0 -46.899)"><g transform="translate(49.178 90.018)"><g transform="translate(0 0)"><path class="a" d="M338.25,341.677a1.465,1.465,0,0,0-2.072.021l-.042.042a1.465,1.465,0,0,0,2.093,2.05l.042-.042A1.465,1.465,0,0,0,338.25,341.677Z" transform="translate(-335.718 -341.258)"/></g></g><g transform="translate(55.287 69.722)"><g transform="translate(0 0)"><path class="a" d="M389.606,208.06h-3.893v-3.893a1.465,1.465,0,0,0-2.93,0v3.893h-3.893a1.465,1.465,0,0,0,0,2.93h3.893v3.893a1.465,1.465,0,1,0,2.93,0v-3.893h3.893a1.465,1.465,0,0,0,0-2.93Z" transform="translate(-377.426 -202.702)"/></g></g><g transform="translate(0 46.899)"><g transform="translate(0 0)"><path class="a" d="M66.9,64.576A20.189,20.189,0,0,0,47.043,46.9a19.579,19.579,0,0,0-13.5,5.349,19.579,19.579,0,0,0-13.5-5.349A20.312,20.312,0,0,0,0,67.423a17.964,17.964,0,0,0,1.95,7.509H1.465a1.465,1.465,0,0,0,0,2.93H3.51q4.1,6.948,12.962,15.765a188.815,188.815,0,0,0,16.183,14.231,1.465,1.465,0,0,0,1.779,0c.062-.047,6.262-4.8,13.134-11.28a1.465,1.465,0,1,0-2.01-2.132c-5.24,4.941-10.078,8.858-12.013,10.389A187.776,187.776,0,0,1,18.517,91.528,87.132,87.132,0,0,1,6.952,77.861H20.066A1.465,1.465,0,0,0,21.474,76.8l2.559-8.921,7.088,22.708a1.465,1.465,0,0,0,2.8,0l3.925-12.579h6.54a1.465,1.465,0,1,0,0-2.93H36.765a1.465,1.465,0,0,0-1.4,1.028l-2.848,9.127-7.146-22.9a1.465,1.465,0,0,0-2.807.033l-3.6,12.562H5.218A16.658,16.658,0,0,1,2.93,67.423,17.38,17.38,0,0,1,20.047,49.829a16.748,16.748,0,0,1,12.422,5.491,1.465,1.465,0,0,0,2.153,0,16.748,16.748,0,0,1,12.422-5.491A17.223,17.223,0,0,1,63.79,63.763a12.894,12.894,0,1,0,3.108.813ZM62.109,86.505a9.961,9.961,0,1,1,9.961-9.961A9.972,9.972,0,0,1,62.109,86.505Z" transform="translate(0 -46.899)"/></g></g></g></svg>